<svg width="1000" height="1000" viewBox="0 0 1000 1000" fill="none" xmlns="http://www.w3.org/2000/svg">
<g filter="url(#filter0_i_599_81)">
<g filter="url(#filter1_i_599_81)">
<circle cx="185.147" cy="293.263" r="105.263" fill="url(#paint0_radial_599_81)"/>
</g>
<g filter="url(#filter2_i_599_81)">
<circle cx="105.263" cy="105.263" r="105.263" transform="matrix(-1 0 0 1 921.99 188)" fill="url(#paint1_radial_599_81)"/>
</g>
<path d="M374.095 252.737H626.726C746.695 141.337 942.304 216.636 956.61 379.724L982.265 672.192C993.867 804.451 820.939 864.318 748.282 753.196L668.832 631.684C618.846 661.675 554.452 631.026 546.208 573.319L542.516 547.474H458.305L454.613 573.319C446.369 631.026 381.975 661.676 331.99 631.684L252.539 753.196C179.883 864.318 6.95469 804.451 18.5564 672.192L44.2115 379.724C58.5174 216.636 254.126 141.337 374.095 252.737Z" fill="url(#paint2_radial_599_81)"/>
<g filter="url(#filter3_i_599_81)">
<circle cx="377.253" cy="564.316" r="60.5263" fill="url(#paint3_radial_599_81)"/>
</g>
<g filter="url(#filter4_i_599_81)">
<circle cx="624.621" cy="564.316" r="60.5263" fill="url(#paint4_radial_599_81)"/>
</g>
<g filter="url(#filter5_i_599_81)">
<ellipse cx="231.99" cy="478" rx="39.4737" ry="39.4737" fill="url(#paint5_radial_599_81)"/>
</g>
<g filter="url(#filter6_i_599_81)">
<ellipse cx="231.99" cy="320.105" rx="39.4737" ry="39.4737" fill="url(#paint6_radial_599_81)"/>
</g>
<g filter="url(#filter7_i_599_81)">
<ellipse cx="153.042" cy="399.053" rx="39.4737" ry="39.4737" fill="url(#paint7_radial_599_81)"/>
</g>
<g filter="url(#filter8_i_599_81)">
<ellipse cx="310.937" cy="399.053" rx="39.4737" ry="39.4737" fill="url(#paint8_radial_599_81)"/>
</g>
<g filter="url(#filter9_i_599_81)">
<path d="M281.463 438.526C275.941 438.526 271.463 443.003 271.463 448.526V507.474C271.463 512.997 266.986 517.474 261.463 517.474H202.516C196.993 517.474 192.516 512.997 192.516 507.474V448.526C192.516 443.004 188.039 438.526 182.516 438.526H123.569C118.046 438.526 113.569 434.049 113.569 428.526V369.579C113.569 364.056 118.046 359.579 123.569 359.579H182.516C188.039 359.579 192.516 355.102 192.516 349.579V290.632C192.516 285.109 196.993 280.632 202.516 280.632H261.463C266.986 280.632 271.463 285.109 271.463 290.632V349.579C271.463 355.102 275.94 359.579 281.463 359.579H340.411C345.934 359.579 350.411 364.056 350.411 369.579V428.526C350.411 434.049 345.934 438.526 340.411 438.526H281.463Z" fill="url(#paint9_linear_599_81)"/>
</g>
<g filter="url(#filter10_i_599_81)">
<ellipse cx="39.4737" cy="39.4737" rx="39.4737" ry="39.4737" transform="matrix(-1 0 0 1 809.358 438.526)" fill="url(#paint10_radial_599_81)"/>
</g>
<g filter="url(#filter11_i_599_81)">
<ellipse cx="39.4737" cy="39.4737" rx="39.4737" ry="39.4737" transform="matrix(-1 0 0 1 809.358 280.632)" fill="url(#paint11_radial_599_81)"/>
</g>
<g filter="url(#filter12_i_599_81)">
<ellipse cx="39.4737" cy="39.4737" rx="39.4737" ry="39.4737" transform="matrix(-1 0 0 1 888.306 359.579)" fill="url(#paint12_radial_599_81)"/>
</g>
<g filter="url(#filter13_i_599_81)">
<ellipse cx="39.4737" cy="39.4737" rx="39.4737" ry="39.4737" transform="matrix(-1 0 0 1 730.411 359.579)" fill="url(#paint13_radial_599_81)"/>
</g>
<g filter="url(#filter14_i_599_81)">
<path fill-rule="evenodd" clip-rule="evenodd" d="M553.569 424.842C553.569 453.91 530.005 477.474 500.937 477.474C471.869 477.474 448.305 453.91 448.305 424.842C448.305 395.774 471.869 372.211 500.937 372.211C530.005 372.211 553.569 395.774 553.569 424.842ZM502.726 393.947C502.726 399.092 498.485 403.263 493.253 403.263C488.021 403.263 483.779 399.092 483.779 393.947C483.779 388.802 488.021 384.632 493.253 384.632C498.485 384.632 502.726 388.802 502.726 393.947ZM493.621 467.895C499.057 467.895 503.463 463.512 503.463 458.105C503.463 452.699 499.057 448.316 493.621 448.316C488.185 448.316 483.779 452.699 483.779 458.105C483.779 463.512 488.185 467.895 493.621 467.895ZM515.358 425.789C515.358 429.743 512.177 432.947 508.253 432.947C504.329 432.947 501.147 429.743 501.147 425.789C501.147 421.836 504.329 418.632 508.253 418.632C512.177 418.632 515.358 421.836 515.358 425.789ZM471.253 432.947C478.171 432.947 483.779 427.363 483.779 420.474C483.779 413.585 478.171 408 471.253 408C464.335 408 458.726 413.585 458.726 420.474C458.726 427.363 464.335 432.947 471.253 432.947ZM533.042 448.316C533.042 452.56 529.625 456 525.411 456C521.196 456 517.779 452.56 517.779 448.316C517.779 444.072 521.196 440.632 525.411 440.632C529.625 440.632 533.042 444.072 533.042 448.316ZM531.095 420.526C538.449 420.526 544.411 414.588 544.411 407.263C544.411 399.938 538.449 394 531.095 394C523.741 394 517.779 399.938 517.779 407.263C517.779 414.588 523.741 420.526 531.095 420.526Z" fill="black" fill-opacity="0.5"/>
</g>
</g>
<defs>
<filter id="filter0_i_599_81" x="18.0002" y="183" width="969.821" height="628.331" filterUnits="userSpaceOnUse" color-interpolation-filters="sRGB">
<feFlood flood-opacity="0" result="BackgroundImageFix"/>
<feBlend mode="normal" in="SourceGraphic" in2="BackgroundImageFix" result="shape"/>
<feColorMatrix in="SourceAlpha" type="matrix" values="0 0 0 0 0 0 0 0 0 0 0 0 0 0 0 0 0 0 127 0" result="hardAlpha"/>
<feOffset dx="5" dy="-5"/>
<feGaussianBlur stdDeviation="10"/>
<feComposite in2="hardAlpha" operator="arithmetic" k2="-1" k3="1"/>
<feColorMatrix type="matrix" values="0 0 0 0 0 0 0 0 0 0 0 0 0 0 0 0 0 0 0.25 0"/>
<feBlend mode="normal" in2="shape" result="effect1_innerShadow_599_81"/>
</filter>
<filter id="filter1_i_599_81" x="79.8843" y="148" width="250.526" height="250.526" filterUnits="userSpaceOnUse" color-interpolation-filters="sRGB">
<feFlood flood-opacity="0" result="BackgroundImageFix"/>
<feBlend mode="normal" in="SourceGraphic" in2="BackgroundImageFix" result="shape"/>
<feColorMatrix in="SourceAlpha" type="matrix" values="0 0 0 0 0 0 0 0 0 0 0 0 0 0 0 0 0 0 127 0" result="hardAlpha"/>
<feOffset dx="40" dy="-40"/>
<feGaussianBlur stdDeviation="20"/>
<feComposite in2="hardAlpha" operator="arithmetic" k2="-1" k3="1"/>
<feColorMatrix type="matrix" values="0 0 0 0 0 0 0 0 0 0 0 0 0 0 0 0 0 0 0.25 0"/>
<feBlend mode="normal" in2="shape" result="effect1_innerShadow_599_81"/>
</filter>
<filter id="filter2_i_599_81" x="711.463" y="148" width="250.526" height="250.526" filterUnits="userSpaceOnUse" color-interpolation-filters="sRGB">
<feFlood flood-opacity="0" result="BackgroundImageFix"/>
<feBlend mode="normal" in="SourceGraphic" in2="BackgroundImageFix" result="shape"/>
<feColorMatrix in="SourceAlpha" type="matrix" values="0 0 0 0 0 0 0 0 0 0 0 0 0 0 0 0 0 0 127 0" result="hardAlpha"/>
<feOffset dx="40" dy="-40"/>
<feGaussianBlur stdDeviation="20"/>
<feComposite in2="hardAlpha" operator="arithmetic" k2="-1" k3="1"/>
<feColorMatrix type="matrix" values="0 0 0 0 0 0 0 0 0 0 0 0 0 0 0 0 0 0 0.25 0"/>
<feBlend mode="normal" in2="shape" result="effect1_innerShadow_599_81"/>
</filter>
<filter id="filter3_i_599_81" x="316.727" y="463.789" width="161.053" height="161.053" filterUnits="userSpaceOnUse" color-interpolation-filters="sRGB">
<feFlood flood-opacity="0" result="BackgroundImageFix"/>
<feBlend mode="normal" in="SourceGraphic" in2="BackgroundImageFix" result="shape"/>
<feColorMatrix in="SourceAlpha" type="matrix" values="0 0 0 0 0 0 0 0 0 0 0 0 0 0 0 0 0 0 127 0" result="hardAlpha"/>
<feOffset dx="40" dy="-40"/>
<feGaussianBlur stdDeviation="20"/>
<feComposite in2="hardAlpha" operator="arithmetic" k2="-1" k3="1"/>
<feColorMatrix type="matrix" values="0 0 0 0 0 0 0 0 0 0 0 0 0 0 0 0 0 0 0.25 0"/>
<feBlend mode="normal" in2="shape" result="effect1_innerShadow_599_81"/>
</filter>
<filter id="filter4_i_599_81" x="564.095" y="463.789" width="161.052" height="161.053" filterUnits="userSpaceOnUse" color-interpolation-filters="sRGB">
<feFlood flood-opacity="0" result="BackgroundImageFix"/>
<feBlend mode="normal" in="SourceGraphic" in2="BackgroundImageFix" result="shape"/>
<feColorMatrix in="SourceAlpha" type="matrix" values="0 0 0 0 0 0 0 0 0 0 0 0 0 0 0 0 0 0 127 0" result="hardAlpha"/>
<feOffset dx="40" dy="-40"/>
<feGaussianBlur stdDeviation="20"/>
<feComposite in2="hardAlpha" operator="arithmetic" k2="-1" k3="1"/>
<feColorMatrix type="matrix" values="0 0 0 0 0 0 0 0 0 0 0 0 0 0 0 0 0 0 0.25 0"/>
<feBlend mode="normal" in2="shape" result="effect1_innerShadow_599_81"/>
</filter>
<filter id="filter5_i_599_81" x="192.516" y="418.526" width="98.9473" height="98.9474" filterUnits="userSpaceOnUse" color-interpolation-filters="sRGB">
<feFlood flood-opacity="0" result="BackgroundImageFix"/>
<feBlend mode="normal" in="SourceGraphic" in2="BackgroundImageFix" result="shape"/>
<feColorMatrix in="SourceAlpha" type="matrix" values="0 0 0 0 0 0 0 0 0 0 0 0 0 0 0 0 0 0 127 0" result="hardAlpha"/>
<feOffset dx="20" dy="-20"/>
<feGaussianBlur stdDeviation="10"/>
<feComposite in2="hardAlpha" operator="arithmetic" k2="-1" k3="1"/>
<feColorMatrix type="matrix" values="0 0 0 0 0 0 0 0 0 0 0 0 0 0 0 0 0 0 0.25 0"/>
<feBlend mode="normal" in2="shape" result="effect1_innerShadow_599_81"/>
</filter>
<filter id="filter6_i_599_81" x="192.516" y="260.632" width="98.9473" height="98.9474" filterUnits="userSpaceOnUse" color-interpolation-filters="sRGB">
<feFlood flood-opacity="0" result="BackgroundImageFix"/>
<feBlend mode="normal" in="SourceGraphic" in2="BackgroundImageFix" result="shape"/>
<feColorMatrix in="SourceAlpha" type="matrix" values="0 0 0 0 0 0 0 0 0 0 0 0 0 0 0 0 0 0 127 0" result="hardAlpha"/>
<feOffset dx="20" dy="-20"/>
<feGaussianBlur stdDeviation="10"/>
<feComposite in2="hardAlpha" operator="arithmetic" k2="-1" k3="1"/>
<feColorMatrix type="matrix" values="0 0 0 0 0 0 0 0 0 0 0 0 0 0 0 0 0 0 0.25 0"/>
<feBlend mode="normal" in2="shape" result="effect1_innerShadow_599_81"/>
</filter>
<filter id="filter7_i_599_81" x="113.569" y="339.579" width="98.9473" height="98.9474" filterUnits="userSpaceOnUse" color-interpolation-filters="sRGB">
<feFlood flood-opacity="0" result="BackgroundImageFix"/>
<feBlend mode="normal" in="SourceGraphic" in2="BackgroundImageFix" result="shape"/>
<feColorMatrix in="SourceAlpha" type="matrix" values="0 0 0 0 0 0 0 0 0 0 0 0 0 0 0 0 0 0 127 0" result="hardAlpha"/>
<feOffset dx="20" dy="-20"/>
<feGaussianBlur stdDeviation="10"/>
<feComposite in2="hardAlpha" operator="arithmetic" k2="-1" k3="1"/>
<feColorMatrix type="matrix" values="0 0 0 0 0 0 0 0 0 0 0 0 0 0 0 0 0 0 0.25 0"/>
<feBlend mode="normal" in2="shape" result="effect1_innerShadow_599_81"/>
</filter>
<filter id="filter8_i_599_81" x="271.463" y="339.579" width="98.9473" height="98.9474" filterUnits="userSpaceOnUse" color-interpolation-filters="sRGB">
<feFlood flood-opacity="0" result="BackgroundImageFix"/>
<feBlend mode="normal" in="SourceGraphic" in2="BackgroundImageFix" result="shape"/>
<feColorMatrix in="SourceAlpha" type="matrix" values="0 0 0 0 0 0 0 0 0 0 0 0 0 0 0 0 0 0 127 0" result="hardAlpha"/>
<feOffset dx="20" dy="-20"/>
<feGaussianBlur stdDeviation="10"/>
<feComposite in2="hardAlpha" operator="arithmetic" k2="-1" k3="1"/>
<feColorMatrix type="matrix" values="0 0 0 0 0 0 0 0 0 0 0 0 0 0 0 0 0 0 0.25 0"/>
<feBlend mode="normal" in2="shape" result="effect1_innerShadow_599_81"/>
</filter>
<filter id="filter9_i_599_81" x="113.569" y="240.632" width="276.842" height="276.842" filterUnits="userSpaceOnUse" color-interpolation-filters="sRGB">
<feFlood flood-opacity="0" result="BackgroundImageFix"/>
<feBlend mode="normal" in="SourceGraphic" in2="BackgroundImageFix" result="shape"/>
<feColorMatrix in="SourceAlpha" type="matrix" values="0 0 0 0 0 0 0 0 0 0 0 0 0 0 0 0 0 0 127 0" result="hardAlpha"/>
<feOffset dx="40" dy="-40"/>
<feGaussianBlur stdDeviation="20"/>
<feComposite in2="hardAlpha" operator="arithmetic" k2="-1" k3="1"/>
<feColorMatrix type="matrix" values="0 0 0 0 0 0 0 0 0 0 0 0 0 0 0 0 0 0 0.25 0"/>
<feBlend mode="normal" in2="shape" result="effect1_innerShadow_599_81"/>
</filter>
<filter id="filter10_i_599_81" x="730.411" y="418.526" width="98.9473" height="98.9474" filterUnits="userSpaceOnUse" color-interpolation-filters="sRGB">
<feFlood flood-opacity="0" result="BackgroundImageFix"/>
<feBlend mode="normal" in="SourceGraphic" in2="BackgroundImageFix" result="shape"/>
<feColorMatrix in="SourceAlpha" type="matrix" values="0 0 0 0 0 0 0 0 0 0 0 0 0 0 0 0 0 0 127 0" result="hardAlpha"/>
<feOffset dx="20" dy="-20"/>
<feGaussianBlur stdDeviation="10"/>
<feComposite in2="hardAlpha" operator="arithmetic" k2="-1" k3="1"/>
<feColorMatrix type="matrix" values="0 0 0 0 0 0 0 0 0 0 0 0 0 0 0 0 0 0 0.25 0"/>
<feBlend mode="normal" in2="shape" result="effect1_innerShadow_599_81"/>
</filter>
<filter id="filter11_i_599_81" x="730.411" y="260.632" width="98.9473" height="98.9474" filterUnits="userSpaceOnUse" color-interpolation-filters="sRGB">
<feFlood flood-opacity="0" result="BackgroundImageFix"/>
<feBlend mode="normal" in="SourceGraphic" in2="BackgroundImageFix" result="shape"/>
<feColorMatrix in="SourceAlpha" type="matrix" values="0 0 0 0 0 0 0 0 0 0 0 0 0 0 0 0 0 0 127 0" result="hardAlpha"/>
<feOffset dx="20" dy="-20"/>
<feGaussianBlur stdDeviation="10"/>
<feComposite in2="hardAlpha" operator="arithmetic" k2="-1" k3="1"/>
<feColorMatrix type="matrix" values="0 0 0 0 0 0 0 0 0 0 0 0 0 0 0 0 0 0 0.25 0"/>
<feBlend mode="normal" in2="shape" result="effect1_innerShadow_599_81"/>
</filter>
<filter id="filter12_i_599_81" x="809.358" y="339.579" width="98.9473" height="98.9474" filterUnits="userSpaceOnUse" color-interpolation-filters="sRGB">
<feFlood flood-opacity="0" result="BackgroundImageFix"/>
<feBlend mode="normal" in="SourceGraphic" in2="BackgroundImageFix" result="shape"/>
<feColorMatrix in="SourceAlpha" type="matrix" values="0 0 0 0 0 0 0 0 0 0 0 0 0 0 0 0 0 0 127 0" result="hardAlpha"/>
<feOffset dx="20" dy="-20"/>
<feGaussianBlur stdDeviation="10"/>
<feComposite in2="hardAlpha" operator="arithmetic" k2="-1" k3="1"/>
<feColorMatrix type="matrix" values="0 0 0 0 0 0 0 0 0 0 0 0 0 0 0 0 0 0 0.25 0"/>
<feBlend mode="normal" in2="shape" result="effect1_innerShadow_599_81"/>
</filter>
<filter id="filter13_i_599_81" x="651.463" y="339.579" width="98.9473" height="98.9474" filterUnits="userSpaceOnUse" color-interpolation-filters="sRGB">
<feFlood flood-opacity="0" result="BackgroundImageFix"/>
<feBlend mode="normal" in="SourceGraphic" in2="BackgroundImageFix" result="shape"/>
<feColorMatrix in="SourceAlpha" type="matrix" values="0 0 0 0 0 0 0 0 0 0 0 0 0 0 0 0 0 0 127 0" result="hardAlpha"/>
<feOffset dx="20" dy="-20"/>
<feGaussianBlur stdDeviation="10"/>
<feComposite in2="hardAlpha" operator="arithmetic" k2="-1" k3="1"/>
<feColorMatrix type="matrix" values="0 0 0 0 0 0 0 0 0 0 0 0 0 0 0 0 0 0 0.25 0"/>
<feBlend mode="normal" in2="shape" result="effect1_innerShadow_599_81"/>
</filter>
<filter id="filter14_i_599_81" x="447.305" y="372.211" width="106.263" height="106.263" filterUnits="userSpaceOnUse" color-interpolation-filters="sRGB">
<feFlood flood-opacity="0" result="BackgroundImageFix"/>
<feBlend mode="normal" in="SourceGraphic" in2="BackgroundImageFix" result="shape"/>
<feColorMatrix in="SourceAlpha" type="matrix" values="0 0 0 0 0 0 0 0 0 0 0 0 0 0 0 0 0 0 127 0" result="hardAlpha"/>
<feOffset dx="-1" dy="1"/>
<feGaussianBlur stdDeviation="2.5"/>
<feComposite in2="hardAlpha" operator="arithmetic" k2="-1" k3="1"/>
<feColorMatrix type="matrix" values="0 0 0 0 0 0 0 0 0 0 0 0 0 0 0 0 0 0 0.25 0"/>
<feBlend mode="normal" in2="shape" result="effect1_innerShadow_599_81"/>
</filter>
<radialGradient id="paint0_radial_599_81" cx="0" cy="0" r="1" gradientUnits="userSpaceOnUse" gradientTransform="translate(233.624 230.936) rotate(106.133) scale(174.46)">
<stop stop-color="#8A4A09"/>
<stop offset="1" stop-color="#A65F17"/>
</radialGradient>
<radialGradient id="paint1_radial_599_81" cx="0" cy="0" r="1" gradientUnits="userSpaceOnUse" gradientTransform="translate(153.74 42.9363) rotate(106.133) scale(174.46)">
<stop stop-color="#8A4A09"/>
<stop offset="1" stop-color="#A65F17"/>
</radialGradient>
<radialGradient id="paint2_radial_599_81" cx="0" cy="0" r="1" gradientUnits="userSpaceOnUse" gradientTransform="translate(665.514 406.426) rotate(112.184) scale(437.273 631.128)">
<stop stop-color="#F9A72B"/>
<stop offset="1" stop-color="#FF9900"/>
</radialGradient>
<radialGradient id="paint3_radial_599_81" cx="0" cy="0" r="1" gradientUnits="userSpaceOnUse" gradientTransform="translate(405.127 528.478) rotate(106.133) scale(100.315)">
<stop stop-color="#8A4A09"/>
<stop offset="1" stop-color="#A65F17"/>
</radialGradient>
<radialGradient id="paint4_radial_599_81" cx="0" cy="0" r="1" gradientUnits="userSpaceOnUse" gradientTransform="translate(652.495 528.478) rotate(106.133) scale(100.315)">
<stop stop-color="#8A4A09"/>
<stop offset="1" stop-color="#A65F17"/>
</radialGradient>
<radialGradient id="paint5_radial_599_81" cx="0" cy="0" r="1" gradientUnits="userSpaceOnUse" gradientTransform="translate(250.168 454.627) rotate(106.133) scale(65.4226 65.4226)">
<stop stop-color="#8A4A09"/>
<stop offset="1" stop-color="#A65F17"/>
</radialGradient>
<radialGradient id="paint6_radial_599_81" cx="0" cy="0" r="1" gradientUnits="userSpaceOnUse" gradientTransform="translate(250.168 296.733) rotate(106.133) scale(65.4226 65.4226)">
<stop stop-color="#8A4A09"/>
<stop offset="1" stop-color="#A65F17"/>
</radialGradient>
<radialGradient id="paint7_radial_599_81" cx="0" cy="0" r="1" gradientUnits="userSpaceOnUse" gradientTransform="translate(171.221 375.68) rotate(106.133) scale(65.4226 65.4226)">
<stop stop-color="#8A4A09"/>
<stop offset="1" stop-color="#A65F17"/>
</radialGradient>
<radialGradient id="paint8_radial_599_81" cx="0" cy="0" r="1" gradientUnits="userSpaceOnUse" gradientTransform="translate(329.116 375.68) rotate(106.133) scale(65.4226 65.4226)">
<stop stop-color="#8A4A09"/>
<stop offset="1" stop-color="#A65F17"/>
</radialGradient>
<linearGradient id="paint9_linear_599_81" x1="341.062" y1="140.396" x2="231.99" y2="517.474" gradientUnits="userSpaceOnUse">
<stop stop-color="#8A4A09"/>
<stop offset="1" stop-color="#A65F17"/>
</linearGradient>
<radialGradient id="paint10_radial_599_81" cx="0" cy="0" r="1" gradientUnits="userSpaceOnUse" gradientTransform="translate(57.6524 16.1011) rotate(106.133) scale(65.4226 65.4226)">
<stop stop-color="#8A4A09"/>
<stop offset="1" stop-color="#A65F17"/>
</radialGradient>
<radialGradient id="paint11_radial_599_81" cx="0" cy="0" r="1" gradientUnits="userSpaceOnUse" gradientTransform="translate(57.6524 16.1011) rotate(106.133) scale(65.4226 65.4226)">
<stop stop-color="#8A4A09"/>
<stop offset="1" stop-color="#A65F17"/>
</radialGradient>
<radialGradient id="paint12_radial_599_81" cx="0" cy="0" r="1" gradientUnits="userSpaceOnUse" gradientTransform="translate(57.6524 16.1011) rotate(106.133) scale(65.4226 65.4226)">
<stop stop-color="#8A4A09"/>
<stop offset="1" stop-color="#A65F17"/>
</radialGradient>
<radialGradient id="paint13_radial_599_81" cx="0" cy="0" r="1" gradientUnits="userSpaceOnUse" gradientTransform="translate(57.6524 16.1011) rotate(106.133) scale(65.4226 65.4226)">
<stop stop-color="#8A4A09"/>
<stop offset="1" stop-color="#A65F17"/>
</radialGradient>
</defs>
</svg>
